<?xml version="1.0" standalone="yes"?>
<svg xmlns="http://www.w3.org/2000/svg" width="1181" height="1181">
<path style="fill:#ffffff; stroke:none;" d="M0 0L0 1181L1181 1181L1181 0L0 0z"/>
<path style="fill:#00a0e9; stroke:none;" d="M112 528C115.868 528.887 118.797 530.682 122 533C127.644 528.68 132.463 522.149 136 516C132.417 514.867 126.969 513.099 123.289 514.607C118.472 516.583 114.485 523.68 112 528z"/>
<path style="fill:#00b2ea; stroke:none;" d="M86 528C88.7508 531.416 91.7215 533.071 96 534C100.072 527.844 105.983 522.768 109 516C100.373 517.293 92.3585 522.2 86 528z"/>
<path style="fill:#00a4e9; stroke:none;" d="M145 519C139.196 526.83 130.979 534.073 127 543L139 547C143.95 539.515 152.712 532.798 155 524L145 519z"/>
<path style="fill:#00b2ea; stroke:none;" d="M104 537C105.927 539.395 108.66 542.87 112 543.118C115.736 543.396 121.651 536.95 121.083 533.21C120.177 527.254 111.85 527.993 108.809 531.143C107.067 532.948 105.573 535.05 104 537z"/>
<path style="fill:#22b8eb; stroke:none;" d="M85 529L84 530L84 532L91 538C92.7526 536.67 93.6697 535.753 95 534L85 529z"/>
<path style="fill:#3dbdeb; stroke:none;" d="M83 531C80.7706 536.707 86.8337 539.787 92 539C89.4867 535.645 86.5848 533.17 83 531z"/>
<path style="fill:#00a0e9; stroke:none;" d="M161 532C156.898 538.203 146.138 546.423 145.513 554C145.203 557.758 147.673 562.54 149 566C154.436 561.603 158.467 555.379 162.919 550C164.806 547.72 167.657 545.046 168.187 542C168.974 537.473 164.521 533.721 161 532z"/>
<path style="fill:#57c1ec; stroke:none;" d="M80 534C79.253 539.042 83.2079 540.46 87 543C88.4566 541.897 88.8965 541.457 90 540L80 534z"/>
<path style="fill:#6dc7ed; stroke:none;" d="M78 537C76.2571 542.313 79.924 544.184 84 547L88 544C85.2179 540.895 81.6487 539.004 78 537z"/>
<path style="fill:#10b6eb; stroke:none;" d="M102 539C104.687 541.876 108.203 543.918 112 545L106 538L102 539z"/>
<path style="fill:#2bbaeb; stroke:none;" d="M101 540C100.528 541.416 100.186 541.814 99 543L104 549L110 546C107.826 542.409 104.918 541.272 101 540z"/>
<path style="fill:#83cdee; stroke:none;" d="M75 541C74.3597 542.928 73.435 544.917 74.2377 546.961C76.7211 553.284 82.2661 550.92 84 546L75 541z"/>
<path style="fill:#4fc0ec; stroke:none;" d="M98 544C97.286 548.904 100.403 550.631 105 550C103.194 546.829 101.39 545.343 98 544z"/>
<path style="fill:#a2d6ee; stroke:none;" d="M72 547C70.5287 553.433 69.0184 559.348 69 566C73.4129 562.144 77.3349 557.221 80 552C77.3843 550.084 74.9595 548.311 72 547z"/>
<path style="fill:#6ac6ed; stroke:none;" d="M96 547C92.5571 551.995 94.4478 554.533 100 556L103 551L96 547z"/>
<path style="fill:#00aaea; stroke:none;" d="M173 551C170.447 553.932 168.03 556.964 165.6 560L160.77 566C157.183 570.62 158.145 578.081 165.91 576.982C168.489 576.616 170.305 573.877 171.785 571.995C176.572 565.907 177.679 557.567 173 551z"/>
<path style="fill:#86cdee; stroke:none;" d="M92 552L89 555C91.1994 558.354 93.2623 560.487 97 562C97.8805 559.979 98.4964 558.146 99 556L92 552z"/>
<path style="fill:#99d4ee; stroke:none;" d="M89 556C85.8568 559.415 82.8958 562.746 81 567C84.351 567.495 88.6408 569.775 91.9807 569.071C101.651 567.031 92.5145 558.652 89 556z"/>
<path style="fill:#00a0e9; stroke:none;" d="M61 568.439C53.6105 569.593 46.3216 572.044 40 576.09C34.2034 579.8 29.3931 584.369 25.4398 590C1.20965 624.512 24.0993 674.148 67 675.961C75.0166 676.299 83.5848 674.568 91 671.546C102.187 666.988 120.875 652.44 108.606 639.225C98.8889 628.758 88.6695 640.74 80 645.164C66.9493 651.824 51.9663 644.608 45.821 632C37.2835 614.485 53.3385 594.592 72 596.093C80.8369 596.804 85.3271 603.872 93 606.852C97.6344 608.651 103.073 607.804 106.891 604.581C115.295 597.489 111.24 585.691 103.96 579.669C92.2476 569.98 75.9574 566.103 61 568.439M362 611L353 611C348.569 626.057 329.616 632.542 317.04 622.468C310.025 616.848 307.394 607.696 308.093 599C308.737 590.988 313.038 583.365 320 579.225C331.54 572.362 347.792 576.823 352 590L361 590C357.866 569.095 330.696 562.794 314 572.367C304.056 578.068 299.283 588.902 299.015 600C298.746 611.093 301.513 622.515 311.004 629.362C328.688 642.12 358.593 633.73 362 611z"/>
<path style="fill:#00b2ea; stroke:none;" d="M175 581C177.771 584.506 180.83 587.324 185 589C189.156 583.486 194.484 578.504 197 572C194.059 570.698 190.364 568.82 187.039 569.411C182.033 570.302 178.228 577.493 175 581z"/>
<path style="fill:#00a0e9; stroke:none;" d="M399 569L399 635L449 635L449 627L408 627L408 569L399 569M495 569.465C472.548 573.514 463.449 602.594 475.133 621C482.748 632.994 497.597 636.801 511 634.384C536.06 629.866 545.466 596.775 528.532 578.174C520.356 569.192 506.473 567.395 495 569.465M577 569L577 602C577 609.342 576.699 617.4 580.533 623.985C589.839 639.968 621.909 638.923 630.583 623C634.08 616.579 634 608.115 634 601L634 569L625 569L625 600C625 606.205 625.162 613.433 621.911 618.985C615.119 630.583 594.405 629.872 588.303 617.999C585.486 612.516 586 605.955 586 600L586 569L577 569M674 569L674 635C689.034 635 707.757 638.085 720.996 629.451C738.648 617.94 738.425 584.062 720 573.363C707.012 565.821 688.432 569 674 569z"/>
<path style="fill:#0e6eb8; stroke:none;" d="M773 569L773 635L800 635C807.045 635 814.468 635.199 820.999 632.08C829.777 627.89 833.069 615.309 827.656 607.093C825.306 603.526 821.703 601.816 818 600C828.942 594.272 830.795 577.716 818.996 571.442C813.482 568.51 807.027 569 801 569L773 569M866 569L866 635L875 635L875 607C883.837 607 899.675 603.934 906.606 610.558C912.849 616.525 907.706 629.418 914.43 633.972C916.955 635.683 921.107 635 924 635C922.814 631.665 921.146 628.505 920.468 625C918.731 616.02 920.091 606.945 910 603C922.294 596.388 925.885 577.683 910.999 570.97C905.667 568.565 899.695 569 894 569L866 569M955 635C957.866 635 962.009 635.689 964.501 633.972C969.573 630.478 968.104 621.438 973.394 618.028C975.544 616.641 978.568 617.005 981 617C986.764 616.988 998.932 614.722 1003.58 618.603C1007.58 621.94 1009.67 630.135 1011 635L1021 635C1020 628.321 1016.63 622.174 1014 616L999.421 582C996.503 575.16 994.51 566.683 985.108 569.318C979.808 570.803 977.85 580.492 975.989 585C969.197 601.459 959.892 617.886 955 635M1048 569L1048 635L1057 635L1057 569L1048 569M1098 569L1098 635L1108 635L1108 584C1117.85 595.387 1126.59 607.953 1135.63 620C1138.91 624.378 1142.81 632.289 1148.09 634.397C1150.49 635.354 1153.47 634.998 1156 635L1156 569L1147 569L1147 620C1138.73 608.481 1129.88 597.349 1121.37 586C1117.6 580.965 1113.12 571.925 1106.99 569.603C1104.25 568.569 1100.87 569 1098 569z"/>
<path style="fill:#1bb7ea; stroke:none;" d="M155 573C158.263 576.475 161.172 578.637 166 579C163.366 576.193 160.025 574.38 157 572L155 573z"/>
<path style="fill:#36bceb; stroke:none;" d="M152 578C156.833 581.347 161.382 586.146 165 579C159.918 577.591 155.73 572.004 152 578z"/>
<path style="fill:#ffffff; stroke:none;" d="M499 576.468C478.811 580.269 472.249 608.135 487.093 621.786C493.105 627.315 502.26 628.198 510 626.685C528.546 623.061 532.975 597.632 522.211 584.174C516.914 577.552 507.155 574.932 499 576.468M683 576L683 627C692.858 627 705.167 629.047 713.999 623.775C727.621 615.646 728.911 590.218 715.96 580.803C707.061 574.334 693.363 576 683 576M782 576L782 597C790.604 597 804.194 599.565 811.985 595.543C819.454 591.688 819.861 581.316 811.985 577.653C803.625 573.765 791.017 576 782 576M875 576L875 599C883.892 599 898.09 601.678 905.956 596.911C912.82 592.75 913.018 582.234 905.956 578.14C897.863 573.447 884.032 576 875 576z"/>
<path style="fill:#00aaea; stroke:none;" d="M205 577C200.911 582.517 196.651 587.947 192 593C193.866 595.376 196.79 599.505 200.05 599.944C202.286 600.244 203.849 598.429 205.196 596.938C208.64 593.122 211.622 588.879 215 585C212.281 581.222 209.356 578.688 205 577z"/>
<path style="fill:#5ac2ec; stroke:none;" d="M149 580C151.957 583.867 157.423 590.26 161 584C156.785 581.081 154.156 577.637 149 580z"/>
<path style="fill:#ffffff; stroke:none;" d="M988 579C983.948 588.876 978.821 598.688 976 609L1001 609C997.306 599.476 994.159 587.147 988 579z"/>
<path style="fill:#6ac6ed; stroke:none;" d="M149 581L146 585C149.537 587.261 153.106 589.434 157 591C156.795 586.09 152.97 583.456 149 581z"/>
<path style="fill:#15b7ea; stroke:none;" d="M175 582C174.929 586.458 177.952 587.355 182 588C179.946 585.453 177.809 583.675 175 582z"/>
<path style="fill:#26b9eb; stroke:none;" d="M173 584C171.814 585.186 171.472 585.584 171 587C174.354 589.622 176.97 592.426 181 594L184 589C180.156 587.515 176.593 586.051 173 584z"/>
<path style="fill:#86cdee; stroke:none;" d="M145 585C145.131 590.555 146.21 595.286 152 597L156 592C153.063 588.35 149.453 586.385 145 585z"/>
<path style="fill:#4abfeb; stroke:none;" d="M170 587L166 592C169.758 596.512 174.595 596.598 180 595C177.257 591.561 174.267 588.288 170 587z"/>
<path style="fill:#00aeea; stroke:none;" d="M211 605C215.828 607.432 225.285 611.133 225.559 601.999C225.661 598.575 223.277 595.071 222 592C216.796 594.536 213.068 599.653 211 605z"/>
<path style="fill:#6fc8ed; stroke:none;" d="M166 593C164.242 595.012 163.084 596.581 162 599L170 597C168.67 595.247 167.753 594.33 166 593z"/>
<path style="fill:#26b9eb; stroke:none;" d="M192 594L189 598L200 604L201 601C198.001 598.588 195.305 595.986 192 594z"/>
<path style="fill:#38bceb; stroke:none;" d="M189 598C191.245 601.917 194.38 605.072 199 605C196.273 601.378 193.272 599.472 189 598z"/>
<path style="fill:#17b6ea; stroke:none;" d="M210 604L209 605C212.019 608.697 215.378 610.806 220 612L221 611L221 609L210 604z"/>
<path style="fill:#ffffff; stroke:none;" d="M782 604L782 628C791.903 628 811.255 631.349 818.486 622.775C822.805 617.654 820.767 609.525 814.957 606.573C805.669 601.853 792.067 604 782 604z"/>
<path style="fill:#26b9eb; stroke:none;" d="M209 606C207.814 607.186 207.472 607.584 207 609C210.962 610.819 214.614 613.701 219 613C216.063 610.166 212.552 608.014 209 606z"/>
<path style="fill:#42beeb; stroke:none;" d="M204 613C208.88 615.838 213.431 620.992 217 614C212.53 611.129 207.568 607.258 204 613z"/>
<path style="fill:#5ec3ec; stroke:none;" d="M202 617L212 622L213 621C211.065 617.038 204.389 609.894 202 617z"/>
<path style="fill:#2bbaeb; stroke:none;" d="M223 622L230 624L230 615C226.699 616.674 224.971 618.882 223 622z"/>
<path style="fill:#7ccbed; stroke:none;" d="M202 617C202 621.122 201.722 631.662 208.265 625.993C209.189 625.193 210.229 623.851 211 623C208.472 619.86 205.801 618.309 202 617z"/>
<path style="fill:#53c1ec; stroke:none;" d="M222 622L219 627C222.287 628.904 225.399 630.762 229 632C230.195 625.455 228.746 623.019 222 622z"/>
<path style="fill:#a1d6ee; stroke:none;" d="M202 627C199.65 631.937 196.862 636.358 194 641C198.703 638.76 206.446 632.15 202 627z"/>
<path style="fill:#71c8ed; stroke:none;" d="M218 627L217 631C220.443 633.72 224.053 636.086 228 638L229 632C225.338 630.185 221.972 628 218 627z"/>
<path style="fill:#99d4ee; stroke:none;" d="M216 630L209 639C214.151 641.408 218.683 644.988 224 647C228.773 637.883 223.617 634.683 216 630z"/>
<path style="fill:#a9d8ee; stroke:none;" d="M199 652L213 661C217.871 657.412 221.412 652.447 224 647C220.281 644.938 214.47 639.453 210.015 640.022C205.197 640.637 201.176 648.218 199 652z"/>
<path style="fill:#badfef; stroke:none;" d="M167 658L178 664C183.788 656.192 190.522 649.012 196 641C191.954 641.95 188.817 644.346 185 645.906C176.76 649.275 172.264 650.043 167 658z"/>
<path style="fill:#c7e3ef; stroke:none;" d="M100 676C104.117 676 109.863 677.027 113.711 675.397C117.171 673.93 119.532 669.812 121.803 667C126.671 660.971 132.828 655.117 136 648C131.818 648 126.095 646.995 122.171 648.603C118.98 649.91 116.863 653.446 114.75 656C109.611 662.209 103.162 668.529 100 676M127 676C131.261 676 137.075 677.005 140.961 674.972C144.514 673.113 146.959 669.051 149.4 666C154.025 660.219 159.602 654.586 163 648C158.724 648 153.081 647.044 149.039 648.603C145.701 649.891 143.548 653.322 141.4 656C136.409 662.223 129.899 668.504 127 676z"/>
<path style="fill:#b5ddef; stroke:none;" d="M198 652C192.196 659.83 183.979 667.073 180 676C191.116 673.906 207.323 671.177 213 660C208.186 657.053 203.399 653.709 198 652z"/>
<path style="fill:#c7e3ef; stroke:none;" d="M153 676C157.237 676 162.918 676.978 166.91 675.397C171.606 673.537 175.27 667.467 177 663C174.462 661.651 171.031 658.809 168.015 659.103C162.38 659.651 155.371 671.405 153 676z"/>
</svg>
